<svg xmlns="http://www.w3.org/2000/svg" viewBox="0 0 20 20"><defs><style>.cls-1{fill:none;}.cls-2{fill:#fff;}.cls-3{fill:#9f3134;}</style></defs><g id="レイヤー_2" data-name="レイヤー 2"><g id="レイヤー_1-2" data-name="レイヤー 1"><rect class="cls-1" width="20" height="20"/><path class="cls-2" d="M18.43,1.54a1.57,1.57,0,0,0-1.29-.44L6,2.53a1.57,1.57,0,0,0-1.27,1A1.53,1.53,0,0,0,5.1,5.16L6.43,6.49.65,12.27a1.54,1.54,0,0,0,0,2.19l4.81,4.81a1.56,1.56,0,0,0,1.1.45,1.54,1.54,0,0,0,1.09-.45l5.78-5.78,1.38,1.38a1.55,1.55,0,0,0,2.63-.9L18.87,2.84A1.56,1.56,0,0,0,18.43,1.54ZM15.91,13.78,13.43,11.3,6.56,18.17,1.75,13.36,8.62,6.49,6.2,4.07,17.33,2.64Z"/><path class="cls-3" d="M8.62,6.49,1.75,13.36l4.81,4.81,6.87-6.87,2.48,2.48L17.33,2.64,6.2,4.07Z"/></g></g></svg>